<svg width="48" height="48" viewBox="0 0 48 48" fill="none" xmlns="http://www.w3.org/2000/svg">
<path d="M18 14C12 14 10 20 10 25C10 31 14 40 18 40C20.176 39.908 21.358 39 24 39C26.624 39 27 40 30 40C33 40 38 34 38 30C37.944 29.98 33.056 29.194 33 24C32.962 19.66 37.832 18.092 38 18C35.954 15.016 32.098 14.074 31 14C28.134 13.778 25.34 16 24 16C22.64 16 20.2 14 18 14Z" stroke="#00B4D8" stroke-width="1.2" stroke-linecap="round" stroke-linejoin="round"/>
<path d="M24 8C25.0609 8 26.0783 7.57857 26.8284 6.82843C27.5786 6.07828 28 5.06087 28 4C26.9391 4 25.9217 4.42143 25.1716 5.17157C24.4214 5.92172 24 6.93913 24 8Z" fill="#00B4D8"/>
<path d="M24 8C25.0609 8 26.0783 7.57857 26.8284 6.82843C27.5786 6.07828 28 5.06087 28 4C26.9391 4 25.9217 4.42143 25.1716 5.17157C24.4214 5.92172 24 6.93913 24 8" stroke="#00B4D8" stroke-width="1.2" stroke-linecap="round" stroke-linejoin="round"/>
</svg>
