<svg width="48" height="48" viewBox="0 0 48 48" fill="none" xmlns="http://www.w3.org/2000/svg">
<mask id="path-1-inside-1_239_5265" fill="white">
<path d="M4.18 33.6H6.5C7.05228 33.6 7.5 33.1523 7.5 32.6V20.52C7.5 19.9677 7.05284 19.52 6.50055 19.52C5.80755 19.52 4.886 19.52 4.18 19.52M5.84 17.68C6.07972 17.6853 6.3181 17.6427 6.54112 17.5546C6.76414 17.4665 6.96732 17.3348 7.13873 17.1671C7.31013 16.9994 7.44631 16.7992 7.53926 16.5782C7.63221 16.3571 7.68006 16.1198 7.68 15.88C7.68 14.88 6.88 14.08 5.84 14.08C5.60028 14.0746 5.3619 14.1173 5.13888 14.2053C4.91586 14.2934 4.71268 14.4251 4.54127 14.5928C4.36987 14.7605 4.23369 14.9607 4.14074 15.1818C4.04779 15.4028 3.99994 15.6402 4 15.88C4 16.88 4.8 17.68 5.84 17.68ZM18.5 14.12C12.92 14.12 9.4 17.92 9.4 24C9.4 30.12 12.92 33.92 18.5 33.92C24.08 33.92 27.6 30.12 27.6 24C27.6 17.92 24.08 14.12 18.5 14.12ZM18.5 17C21.92 17 24.1 19.74 24.1 24C24.1 28.3 21.92 31 18.5 31C15.08 31 12.92 28.3 12.92 24C12.92 19.74 15.08 17 18.5 17ZM30.0406 28.22C29.4727 28.22 29.0091 28.6965 29.1261 29.2522C29.7385 32.1611 32.4519 33.92 36.44 33.92C41.08 33.92 44 31.64 44 28C44 25.14 42.36 23.54 38.46 22.64L36.26 22.14C33.9 21.58 32.94 20.84 32.94 19.56C32.94 18 34.4 16.9 36.56 16.9C38.367 16.9 39.7018 17.6421 40.2096 18.8935C40.4043 19.3732 40.8166 19.78 41.3341 19.78H42.6561C43.2176 19.78 43.6791 19.3134 43.5689 18.7628C43.0062 15.9506 40.3792 14.12 36.58 14.12C32.42 14.12 29.46 16.42 29.46 19.82C29.46 22.56 31.12 24.26 34.66 25.06L37.14 25.64C39.56 26.22 40.54 27 40.54 28.4C40.54 30 38.94 31.14 36.62 31.14C34.6985 31.14 33.1474 30.3579 32.5576 29.078C32.3446 28.6156 31.9351 28.22 31.4261 28.22H30.0406Z"/>
</mask>
<path d="M4.18 33.6H6.5C7.05228 33.6 7.5 33.1523 7.5 32.6V20.52C7.5 19.9677 7.05284 19.52 6.50055 19.52C5.80755 19.52 4.886 19.52 4.18 19.52M5.84 17.68C6.07972 17.6853 6.3181 17.6427 6.54112 17.5546C6.76414 17.4665 6.96732 17.3348 7.13873 17.1671C7.31013 16.9994 7.44631 16.7992 7.53926 16.5782C7.63221 16.3571 7.68006 16.1198 7.68 15.88C7.68 14.88 6.88 14.08 5.84 14.08C5.60028 14.0746 5.3619 14.1173 5.13888 14.2053C4.91586 14.2934 4.71268 14.4251 4.54127 14.5928C4.36987 14.7605 4.23369 14.9607 4.14074 15.1818C4.04779 15.4028 3.99994 15.6402 4 15.88C4 16.88 4.8 17.68 5.84 17.68ZM18.5 14.12C12.92 14.12 9.4 17.92 9.4 24C9.4 30.12 12.92 33.92 18.5 33.92C24.08 33.92 27.6 30.12 27.6 24C27.6 17.92 24.08 14.12 18.5 14.12ZM18.5 17C21.92 17 24.1 19.74 24.1 24C24.1 28.3 21.92 31 18.5 31C15.08 31 12.92 28.3 12.92 24C12.92 19.74 15.08 17 18.5 17ZM30.0406 28.22C29.4727 28.22 29.0091 28.6965 29.1261 29.2522C29.7385 32.1611 32.4519 33.92 36.44 33.92C41.08 33.92 44 31.64 44 28C44 25.14 42.36 23.54 38.46 22.64L36.26 22.14C33.9 21.58 32.94 20.84 32.94 19.56C32.94 18 34.4 16.9 36.56 16.9C38.367 16.9 39.7018 17.6421 40.2096 18.8935C40.4043 19.3732 40.8166 19.78 41.3341 19.78H42.6561C43.2176 19.78 43.6791 19.3134 43.5689 18.7628C43.0062 15.9506 40.3792 14.12 36.58 14.12C32.42 14.12 29.46 16.42 29.46 19.82C29.46 22.56 31.12 24.26 34.66 25.06L37.14 25.64C39.56 26.22 40.54 27 40.54 28.4C40.54 30 38.94 31.14 36.62 31.14C34.6985 31.14 33.1474 30.3579 32.5576 29.078C32.3446 28.6156 31.9351 28.22 31.4261 28.22H30.0406Z" fill="#7D858F"/>
<path d="M5.84 17.68L5.85334 17.08H5.84V17.68ZM7.68 15.88H7.08L7.08 15.8801L7.68 15.88ZM5.84 14.08L5.82666 14.68H5.84V14.08ZM4 15.88H4.6V15.8798L4 15.88ZM38.46 22.64L38.5949 22.0553L38.593 22.0549L38.46 22.64ZM36.26 22.14L36.1215 22.7238L36.127 22.7251L36.26 22.14ZM34.66 25.06L34.7966 24.4757L34.7923 24.4747L34.66 25.06ZM37.14 25.64L37.2798 25.0565L37.2766 25.0557L37.14 25.64ZM32.5576 29.078L33.1025 28.8269L32.5576 29.078ZM43.5689 18.7628L42.9806 18.8805L43.5689 18.7628ZM40.2096 18.8935L39.6537 19.1192L40.2096 18.8935ZM29.1261 29.2522L28.5389 29.3758L29.1261 29.2522ZM4.18 34.2H6.5V33H4.18V34.2ZM8.1 32.6V20.52H6.9V32.6H8.1ZM6.50056 18.92C6.4992 18.92 6.49785 18.92 6.49649 18.92C6.49514 18.92 6.49378 18.92 6.49242 18.92C6.49107 18.92 6.48971 18.92 6.48835 18.92C6.48699 18.92 6.48563 18.92 6.48427 18.92C6.48291 18.92 6.48155 18.92 6.48019 18.92C6.47882 18.92 6.47746 18.92 6.4761 18.92C6.47473 18.92 6.47337 18.92 6.472 18.92C6.47064 18.92 6.46927 18.92 6.4679 18.92C6.46654 18.92 6.46517 18.92 6.4638 18.92C6.46243 18.92 6.46106 18.92 6.45969 18.92C6.45832 18.92 6.45695 18.92 6.45558 18.92C6.4542 18.92 6.45283 18.92 6.45146 18.92C6.45008 18.92 6.44871 18.92 6.44733 18.92C6.44596 18.92 6.44458 18.92 6.4432 18.92C6.44183 18.92 6.44045 18.92 6.43907 18.92C6.43769 18.92 6.43631 18.92 6.43493 18.92C6.43355 18.92 6.43217 18.92 6.43079 18.92C6.4294 18.92 6.42802 18.92 6.42664 18.92C6.42525 18.92 6.42387 18.92 6.42248 18.92C6.4211 18.92 6.41971 18.92 6.41832 18.92C6.41694 18.92 6.41555 18.92 6.41416 18.92C6.41277 18.92 6.41138 18.92 6.40999 18.92C6.4086 18.92 6.40721 18.92 6.40582 18.92C6.40443 18.92 6.40303 18.92 6.40164 18.92C6.40025 18.92 6.39885 18.92 6.39746 18.92C6.39606 18.92 6.39467 18.92 6.39327 18.92C6.39187 18.92 6.39048 18.92 6.38908 18.92C6.38768 18.92 6.38628 18.92 6.38488 18.92C6.38348 18.92 6.38208 18.92 6.38068 18.92C6.37928 18.92 6.37788 18.92 6.37647 18.92C6.37507 18.92 6.37367 18.92 6.37226 18.92C6.37086 18.92 6.36945 18.92 6.36805 18.92C6.36664 18.92 6.36523 18.92 6.36383 18.92C6.36242 18.92 6.36101 18.92 6.3596 18.92C6.35819 18.92 6.35678 18.92 6.35537 18.92C6.35396 18.92 6.35255 18.92 6.35114 18.92C6.34973 18.92 6.34831 18.92 6.3469 18.92C6.34549 18.92 6.34407 18.92 6.34266 18.92C6.34124 18.92 6.33983 18.92 6.33841 18.92C6.33699 18.92 6.33558 18.92 6.33416 18.92C6.33274 18.92 6.33132 18.92 6.3299 18.92C6.32848 18.92 6.32706 18.92 6.32564 18.92C6.32422 18.92 6.3228 18.92 6.32138 18.92C6.31995 18.92 6.31853 18.92 6.31711 18.92C6.31568 18.92 6.31426 18.92 6.31283 18.92C6.31141 18.92 6.30998 18.92 6.30856 18.92C6.30713 18.92 6.3057 18.92 6.30427 18.92C6.30284 18.92 6.30142 18.92 6.29999 18.92C6.29856 18.92 6.29713 18.92 6.2957 18.92C6.29426 18.92 6.29283 18.92 6.2914 18.92C6.28997 18.92 6.28853 18.92 6.2871 18.92C6.28567 18.92 6.28423 18.92 6.2828 18.92C6.28136 18.92 6.27993 18.92 6.27849 18.92C6.27705 18.92 6.27561 18.92 6.27418 18.92C6.27274 18.92 6.2713 18.92 6.26986 18.92C6.26842 18.92 6.26698 18.92 6.26554 18.92C6.2641 18.92 6.26266 18.92 6.26122 18.92C6.25977 18.92 6.25833 18.92 6.25689 18.92C6.25544 18.92 6.254 18.92 6.25255 18.92C6.25111 18.92 6.24966 18.92 6.24822 18.92C6.24677 18.92 6.24533 18.92 6.24388 18.92C6.24243 18.92 6.24098 18.92 6.23953 18.92C6.23808 18.92 6.23663 18.92 6.23518 18.92C6.23373 18.92 6.23228 18.92 6.23083 18.92C6.22938 18.92 6.22793 18.92 6.22647 18.92C6.22502 18.92 6.22357 18.92 6.22211 18.92C6.22066 18.92 6.2192 18.92 6.21775 18.92C6.21629 18.92 6.21484 18.92 6.21338 18.92C6.21192 18.92 6.21047 18.92 6.20901 18.92C6.20755 18.92 6.20609 18.92 6.20463 18.92C6.20317 18.92 6.20171 18.92 6.20025 18.92C6.19879 18.92 6.19733 18.92 6.19587 18.92C6.19441 18.92 6.19294 18.92 6.19148 18.92C6.19002 18.92 6.18855 18.92 6.18709 18.92C6.18562 18.92 6.18416 18.92 6.18269 18.92C6.18123 18.92 6.17976 18.92 6.1783 18.92C6.17683 18.92 6.17536 18.92 6.17389 18.92C6.17242 18.92 6.17096 18.92 6.16949 18.92C6.16802 18.92 6.16655 18.92 6.16508 18.92C6.16361 18.92 6.16213 18.92 6.16066 18.92C6.15919 18.92 6.15772 18.92 6.15625 18.92C6.15477 18.92 6.1533 18.92 6.15182 18.92C6.15035 18.92 6.14887 18.92 6.1474 18.92C6.14592 18.92 6.14445 18.92 6.14297 18.92C6.14149 18.92 6.14002 18.92 6.13854 18.92C6.13706 18.92 6.13558 18.92 6.1341 18.92C6.13263 18.92 6.13115 18.92 6.12967 18.92C6.12819 18.92 6.1267 18.92 6.12522 18.92C6.12374 18.92 6.12226 18.92 6.12078 18.92C6.1193 18.92 6.11781 18.92 6.11633 18.92C6.11484 18.92 6.11336 18.92 6.11188 18.92C6.11039 18.92 6.10891 18.92 6.10742 18.92C6.10593 18.92 6.10445 18.92 6.10296 18.92C6.10147 18.92 6.09999 18.92 6.0985 18.92C6.09701 18.92 6.09552 18.92 6.09403 18.92C6.09254 18.92 6.09105 18.92 6.08956 18.92C6.08807 18.92 6.08658 18.92 6.08509 18.92C6.0836 18.92 6.0821 18.92 6.08061 18.92C6.07912 18.92 6.07763 18.92 6.07613 18.92C6.07464 18.92 6.07314 18.92 6.07165 18.92C6.07015 18.92 6.06866 18.92 6.06716 18.92C6.06567 18.92 6.06417 18.92 6.06267 18.92C6.06118 18.92 6.05968 18.92 6.05818 18.92C6.05668 18.92 6.05519 18.92 6.05369 18.92C6.05219 18.92 6.05069 18.92 6.04919 18.92C6.04769 18.92 6.04619 18.92 6.04469 18.92C6.04318 18.92 6.04168 18.92 6.04018 18.92C6.03868 18.92 6.03718 18.92 6.03567 18.92C6.03417 18.92 6.03267 18.92 6.03116 18.92C6.02966 18.92 6.02815 18.92 6.02665 18.92C6.02514 18.92 6.02364 18.92 6.02213 18.92C6.02062 18.92 6.01912 18.92 6.01761 18.92C6.0161 18.92 6.01459 18.92 6.01309 18.92C6.01158 18.92 6.01007 18.92 6.00856 18.92C6.00705 18.92 6.00554 18.92 6.00403 18.92C6.00252 18.92 6.00101 18.92 5.9995 18.92C5.99799 18.92 5.99647 18.92 5.99496 18.92C5.99345 18.92 5.99194 18.92 5.99042 18.92C5.98891 18.92 5.9874 18.92 5.98588 18.92C5.98437 18.92 5.98285 18.92 5.98134 18.92C5.97982 18.92 5.97831 18.92 5.97679 18.92C5.97528 18.92 5.97376 18.92 5.97224 18.92C5.97073 18.92 5.96921 18.92 5.96769 18.92C5.96617 18.92 5.96465 18.92 5.96313 18.92C5.96162 18.92 5.9601 18.92 5.95858 18.92C5.95706 18.92 5.95554 18.92 5.95402 18.92C5.9525 18.92 5.95097 18.92 5.94945 18.92C5.94793 18.92 5.94641 18.92 5.94489 18.92C5.94336 18.92 5.94184 18.92 5.94032 18.92C5.93879 18.92 5.93727 18.92 5.93575 18.92C5.93422 18.92 5.9327 18.92 5.93117 18.92C5.92965 18.92 5.92812 18.92 5.9266 18.92C5.92507 18.92 5.92354 18.92 5.92202 18.92C5.92049 18.92 5.91896 18.92 5.91743 18.92C5.91591 18.92 5.91438 18.92 5.91285 18.92C5.91132 18.92 5.90979 18.92 5.90826 18.92C5.90673 18.92 5.9052 18.92 5.90367 18.92C5.90214 18.92 5.90061 18.92 5.89908 18.92C5.89755 18.92 5.89602 18.92 5.89449 18.92C5.89295 18.92 5.89142 18.92 5.88989 18.92C5.88836 18.92 5.88682 18.92 5.88529 18.92C5.88376 18.92 5.88222 18.92 5.88069 18.92C5.87915 18.92 5.87762 18.92 5.87608 18.92C5.87455 18.92 5.87301 18.92 5.87148 18.92C5.86994 18.92 5.8684 18.92 5.86687 18.92C5.86533 18.92 5.86379 18.92 5.86225 18.92C5.86072 18.92 5.85918 18.92 5.85764 18.92C5.8561 18.92 5.85456 18.92 5.85302 18.92C5.85149 18.92 5.84995 18.92 5.84841 18.92C5.84687 18.92 5.84533 18.92 5.84379 18.92C5.84224 18.92 5.8407 18.92 5.83916 18.92C5.83762 18.92 5.83608 18.92 5.83454 18.92C5.833 18.92 5.83145 18.92 5.82991 18.92C5.82837 18.92 5.82682 18.92 5.82528 18.92C5.82374 18.92 5.82219 18.92 5.82065 18.92C5.8191 18.92 5.81756 18.92 5.81601 18.92C5.81447 18.92 5.81292 18.92 5.81138 18.92C5.80983 18.92 5.80829 18.92 5.80674 18.92C5.80519 18.92 5.80365 18.92 5.8021 18.92C5.80055 18.92 5.79901 18.92 5.79746 18.92C5.79591 18.92 5.79436 18.92 5.79281 18.92C5.79126 18.92 5.78972 18.92 5.78817 18.92C5.78662 18.92 5.78507 18.92 5.78352 18.92C5.78197 18.92 5.78042 18.92 5.77887 18.92C5.77732 18.92 5.77577 18.92 5.77422 18.92C5.77266 18.92 5.77111 18.92 5.76956 18.92C5.76801 18.92 5.76646 18.92 5.7649 18.92C5.76335 18.92 5.7618 18.92 5.76025 18.92C5.75869 18.92 5.75714 18.92 5.75559 18.92C5.75403 18.92 5.75248 18.92 5.75092 18.92C5.74937 18.92 5.74782 18.92 5.74626 18.92C5.74471 18.92 5.74315 18.92 5.74159 18.92C5.74004 18.92 5.73848 18.92 5.73693 18.92C5.73537 18.92 5.73381 18.92 5.73226 18.92C5.7307 18.92 5.72914 18.92 5.72759 18.92C5.72603 18.92 5.72447 18.92 5.72291 18.92C5.72136 18.92 5.7198 18.92 5.71824 18.92C5.71668 18.92 5.71512 18.92 5.71356 18.92C5.712 18.92 5.71044 18.92 5.70888 18.92C5.70732 18.92 5.70577 18.92 5.7042 18.92C5.70264 18.92 5.70108 18.92 5.69952 18.92C5.69796 18.92 5.6964 18.92 5.69484 18.92C5.69328 18.92 5.69172 18.92 5.69016 18.92C5.68859 18.92 5.68703 18.92 5.68547 18.92C5.68391 18.92 5.68234 18.92 5.68078 18.92C5.67922 18.92 5.67766 18.92 5.67609 18.92C5.67453 18.92 5.67297 18.92 5.6714 18.92C5.66984 18.92 5.66827 18.92 5.66671 18.92C5.66514 18.92 5.66358 18.92 5.66202 18.92C5.66045 18.92 5.65889 18.92 5.65732 18.92C5.65575 18.92 5.65419 18.92 5.65262 18.92C5.65106 18.92 5.64949 18.92 5.64792 18.92C5.64636 18.92 5.64479 18.92 5.64323 18.92C5.64166 18.92 5.64009 18.92 5.63852 18.92C5.63696 18.92 5.63539 18.92 5.63382 18.92C5.63225 18.92 5.63069 18.92 5.62912 18.92C5.62755 18.92 5.62598 18.92 5.62441 18.92C5.62284 18.92 5.62128 18.92 5.61971 18.92C5.61814 18.92 5.61657 18.92 5.615 18.92C5.61343 18.92 5.61186 18.92 5.61029 18.92C5.60872 18.92 5.60715 18.92 5.60558 18.92C5.60401 18.92 5.60244 18.92 5.60087 18.92C5.5993 18.92 5.59773 18.92 5.59615 18.92C5.59458 18.92 5.59301 18.92 5.59144 18.92C5.58987 18.92 5.5883 18.92 5.58673 18.92C5.58515 18.92 5.58358 18.92 5.58201 18.92C5.58044 18.92 5.57886 18.92 5.57729 18.92C5.57572 18.92 5.57415 18.92 5.57257 18.92C5.571 18.92 5.56943 18.92 5.56785 18.92C5.56628 18.92 5.56471 18.92 5.56313 18.92C5.56156 18.92 5.55998 18.92 5.55841 18.92C5.55684 18.92 5.55526 18.92 5.55369 18.92C5.55211 18.92 5.55054 18.92 5.54896 18.92C5.54739 18.92 5.54581 18.92 5.54424 18.92C5.54266 18.92 5.54109 18.92 5.53951 18.92C5.53794 18.92 5.53636 18.92 5.53479 18.92C5.53321 18.92 5.53163 18.92 5.53006 18.92C5.52848 18.92 5.52691 18.92 5.52533 18.92C5.52375 18.92 5.52218 18.92 5.5206 18.92C5.51902 18.92 5.51745 18.92 5.51587 18.92C5.51429 18.92 5.51272 18.92 5.51114 18.92C5.50956 18.92 5.50798 18.92 5.50641 18.92C5.50483 18.92 5.50325 18.92 5.50167 18.92C5.50009 18.92 5.49852 18.92 5.49694 18.92C5.49536 18.92 5.49378 18.92 5.4922 18.92C5.49063 18.92 5.48905 18.92 5.48747 18.92C5.48589 18.92 5.48431 18.92 5.48273 18.92C5.48115 18.92 5.47957 18.92 5.478 18.92C5.47642 18.92 5.47484 18.92 5.47326 18.92C5.47168 18.92 5.4701 18.92 5.46852 18.92C5.46694 18.92 5.46536 18.92 5.46378 18.92C5.4622 18.92 5.46062 18.92 5.45904 18.92C5.45746 18.92 5.45588 18.92 5.4543 18.92C5.45272 18.92 5.45114 18.92 5.44956 18.92C5.44798 18.92 5.4464 18.92 5.44482 18.92C5.44324 18.92 5.44166 18.92 5.44008 18.92C5.4385 18.92 5.43692 18.92 5.43533 18.92C5.43375 18.92 5.43217 18.92 5.43059 18.92C5.42901 18.92 5.42743 18.92 5.42585 18.92C5.42427 18.92 5.42269 18.92 5.4211 18.92C5.41952 18.92 5.41794 18.92 5.41636 18.92C5.41478 18.92 5.4132 18.92 5.41161 18.92C5.41003 18.92 5.40845 18.92 5.40687 18.92C5.40529 18.92 5.40371 18.92 5.40212 18.92C5.40054 18.92 5.39896 18.92 5.39738 18.92C5.3958 18.92 5.39421 18.92 5.39263 18.92C5.39105 18.92 5.38947 18.92 5.38788 18.92C5.3863 18.92 5.38472 18.92 5.38314 18.92C5.38155 18.92 5.37997 18.92 5.37839 18.92C5.37681 18.92 5.37522 18.92 5.37364 18.92C5.37206 18.92 5.37048 18.92 5.36889 18.92C5.36731 18.92 5.36573 18.92 5.36415 18.92C5.36256 18.92 5.36098 18.92 5.3594 18.92C5.35781 18.92 5.35623 18.92 5.35465 18.92C5.35307 18.92 5.35148 18.92 5.3499 18.92C5.34832 18.92 5.34673 18.92 5.34515 18.92C5.34357 18.92 5.34198 18.92 5.3404 18.92C5.33882 18.92 5.33723 18.92 5.33565 18.92C5.33407 18.92 5.33249 18.92 5.3309 18.92C5.32932 18.92 5.32774 18.92 5.32615 18.92C5.32457 18.92 5.32299 18.92 5.3214 18.92C5.31982 18.92 5.31824 18.92 5.31665 18.92C5.31507 18.92 5.31349 18.92 5.3119 18.92C5.31032 18.92 5.30874 18.92 5.30715 18.92C5.30557 18.92 5.30399 18.92 5.3024 18.92C5.30082 18.92 5.29924 18.92 5.29765 18.92C5.29607 18.92 5.29449 18.92 5.2929 18.92C5.29132 18.92 5.28974 18.92 5.28815 18.92C5.28657 18.92 5.28499 18.92 5.28341 18.92C5.28182 18.92 5.28024 18.92 5.27866 18.92C5.27707 18.92 5.27549 18.92 5.27391 18.92C5.27232 18.92 5.27074 18.92 5.26916 18.92C5.26757 18.92 5.26599 18.92 5.26441 18.92C5.26283 18.92 5.26124 18.92 5.25966 18.92C5.25808 18.92 5.25649 18.92 5.25491 18.92C5.25333 18.92 5.25175 18.92 5.25016 18.92C5.24858 18.92 5.247 18.92 5.24542 18.92C5.24383 18.92 5.24225 18.92 5.24067 18.92C5.23908 18.92 5.2375 18.92 5.23592 18.92C5.23434 18.92 5.23276 18.92 5.23117 18.92C5.22959 18.92 5.22801 18.92 5.22643 18.92C5.22484 18.92 5.22326 18.92 5.22168 18.92C5.2201 18.92 5.21852 18.92 5.21693 18.92C5.21535 18.92 5.21377 18.92 5.21219 18.92C5.21061 18.92 5.20902 18.92 5.20744 18.92C5.20586 18.92 5.20428 18.92 5.2027 18.92C5.20112 18.92 5.19953 18.92 5.19795 18.92C5.19637 18.92 5.19479 18.92 5.19321 18.92C5.19163 18.92 5.19005 18.92 5.18847 18.92C5.18688 18.92 5.1853 18.92 5.18372 18.92C5.18214 18.92 5.18056 18.92 5.17898 18.92C5.1774 18.92 5.17582 18.92 5.17424 18.92C5.17266 18.92 5.17108 18.92 5.1695 18.92C5.16792 18.92 5.16634 18.92 5.16476 18.92C5.16318 18.92 5.1616 18.92 5.16002 18.92C5.15844 18.92 5.15686 18.92 5.15528 18.92C5.1537 18.92 5.15212 18.92 5.15054 18.92C5.14896 18.92 5.14738 18.92 5.1458 18.92C5.14422 18.92 5.14264 18.92 5.14106 18.92C5.13948 18.92 5.1379 18.92 5.13632 18.92C5.13475 18.92 5.13317 18.92 5.13159 18.92C5.13001 18.92 5.12843 18.92 5.12685 18.92C5.12527 18.92 5.1237 18.92 5.12212 18.92C5.12054 18.92 5.11896 18.92 5.11738 18.92C5.11581 18.92 5.11423 18.92 5.11265 18.92C5.11107 18.92 5.1095 18.92 5.10792 18.92C5.10634 18.92 5.10476 18.92 5.10319 18.92C5.10161 18.92 5.10003 18.92 5.09846 18.92C5.09688 18.92 5.0953 18.92 5.09373 18.92C5.09215 18.92 5.09058 18.92 5.089 18.92C5.08742 18.92 5.08585 18.92 5.08427 18.92C5.0827 18.92 5.08112 18.92 5.07954 18.92C5.07797 18.92 5.07639 18.92 5.07482 18.92C5.07324 18.92 5.07167 18.92 5.07009 18.92C5.06852 18.92 5.06694 18.92 5.06537 18.92C5.0638 18.92 5.06222 18.92 5.06065 18.92C5.05907 18.92 5.0575 18.92 5.05593 18.92C5.05435 18.92 5.05278 18.92 5.0512 18.92C5.04963 18.92 5.04806 18.92 5.04648 18.92C5.04491 18.92 5.04334 18.92 5.04177 18.92C5.04019 18.92 5.03862 18.92 5.03705 18.92C5.03548 18.92 5.0339 18.92 5.03233 18.92C5.03076 18.92 5.02919 18.92 5.02762 18.92C5.02605 18.92 5.02447 18.92 5.0229 18.92C5.02133 18.92 5.01976 18.92 5.01819 18.92C5.01662 18.92 5.01505 18.92 5.01348 18.92C5.01191 18.92 5.01034 18.92 5.00877 18.92C5.0072 18.92 5.00563 18.92 5.00406 18.92C5.00249 18.92 5.00092 18.92 4.99935 18.92C4.99778 18.92 4.99621 18.92 4.99465 18.92C4.99308 18.92 4.99151 18.92 4.98994 18.92C4.98837 18.92 4.9868 18.92 4.98524 18.92C4.98367 18.92 4.9821 18.92 4.98053 18.92C4.97897 18.92 4.9774 18.92 4.97583 18.92C4.97427 18.92 4.9727 18.92 4.97113 18.92C4.96957 18.92 4.968 18.92 4.96643 18.92C4.96487 18.92 4.9633 18.92 4.96174 18.92C4.96017 18.92 4.95861 18.92 4.95704 18.92C4.95548 18.92 4.95391 18.92 4.95235 18.92C4.95078 18.92 4.94922 18.92 4.94766 18.92C4.94609 18.92 4.94453 18.92 4.94297 18.92C4.9414 18.92 4.93984 18.92 4.93828 18.92C4.93671 18.92 4.93515 18.92 4.93359 18.92C4.93203 18.92 4.93046 18.92 4.9289 18.92C4.92734 18.92 4.92578 18.92 4.92422 18.92C4.92266 18.92 4.9211 18.92 4.91953 18.92C4.91797 18.92 4.91641 18.92 4.91485 18.92C4.91329 18.92 4.91173 18.92 4.91017 18.92C4.90861 18.92 4.90705 18.92 4.9055 18.92C4.90394 18.92 4.90238 18.92 4.90082 18.92C4.89926 18.92 4.8977 18.92 4.89614 18.92C4.89459 18.92 4.89303 18.92 4.89147 18.92C4.88991 18.92 4.88836 18.92 4.8868 18.92C4.88524 18.92 4.88369 18.92 4.88213 18.92C4.88058 18.92 4.87902 18.92 4.87746 18.92C4.87591 18.92 4.87435 18.92 4.8728 18.92C4.87124 18.92 4.86969 18.92 4.86813 18.92C4.86658 18.92 4.86503 18.92 4.86347 18.92C4.86192 18.92 4.86037 18.92 4.85881 18.92C4.85726 18.92 4.85571 18.92 4.85415 18.92C4.8526 18.92 4.85105 18.92 4.8495 18.92C4.84795 18.92 4.84639 18.92 4.84484 18.92C4.84329 18.92 4.84174 18.92 4.84019 18.92C4.83864 18.92 4.83709 18.92 4.83554 18.92C4.83399 18.92 4.83244 18.92 4.83089 18.92C4.82934 18.92 4.82779 18.92 4.82625 18.92C4.8247 18.92 4.82315 18.92 4.8216 18.92C4.82005 18.92 4.81851 18.92 4.81696 18.92C4.81541 18.92 4.81387 18.92 4.81232 18.92C4.81077 18.92 4.80923 18.92 4.80768 18.92C4.80613 18.92 4.80459 18.92 4.80304 18.92C4.8015 18.92 4.79995 18.92 4.79841 18.92C4.79687 18.92 4.79532 18.92 4.79378 18.92C4.79224 18.92 4.79069 18.92 4.78915 18.92C4.78761 18.92 4.78606 18.92 4.78452 18.92C4.78298 18.92 4.78144 18.92 4.7799 18.92C4.77836 18.92 4.77681 18.92 4.77527 18.92C4.77373 18.92 4.77219 18.92 4.77065 18.92C4.76911 18.92 4.76757 18.92 4.76603 18.92C4.7645 18.92 4.76296 18.92 4.76142 18.92C4.75988 18.92 4.75834 18.92 4.7568 18.92C4.75527 18.92 4.75373 18.92 4.75219 18.92C4.75066 18.92 4.74912 18.92 4.74758 18.92C4.74605 18.92 4.74451 18.92 4.74298 18.92C4.74144 18.92 4.73991 18.92 4.73837 18.92C4.73684 18.92 4.7353 18.92 4.73377 18.92C4.73224 18.92 4.7307 18.92 4.72917 18.92C4.72764 18.92 4.72611 18.92 4.72457 18.92C4.72304 18.92 4.72151 18.92 4.71998 18.92C4.71845 18.92 4.71692 18.92 4.71539 18.92C4.71386 18.92 4.71233 18.92 4.7108 18.92C4.70927 18.92 4.70774 18.92 4.70621 18.92C4.70468 18.92 4.70315 18.92 4.70163 18.92C4.7001 18.92 4.69857 18.92 4.69704 18.92C4.69552 18.92 4.69399 18.92 4.69247 18.92C4.69094 18.92 4.68941 18.92 4.68789 18.92C4.68636 18.92 4.68484 18.92 4.68331 18.92C4.68179 18.92 4.68027 18.92 4.67874 18.92C4.67722 18.92 4.6757 18.92 4.67417 18.92C4.67265 18.92 4.67113 18.92 4.66961 18.92C4.66809 18.92 4.66657 18.92 4.66504 18.92C4.66352 18.92 4.662 18.92 4.66048 18.92C4.65896 18.92 4.65744 18.92 4.65593 18.92C4.65441 18.92 4.65289 18.92 4.65137 18.92C4.64985 18.92 4.64834 18.92 4.64682 18.92C4.6453 18.92 4.64378 18.92 4.64227 18.92C4.64075 18.92 4.63924 18.92 4.63772 18.92C4.63621 18.92 4.63469 18.92 4.63318 18.92C4.63166 18.92 4.63015 18.92 4.62864 18.92C4.62712 18.92 4.62561 18.92 4.6241 18.92C4.62259 18.92 4.62108 18.92 4.61956 18.92C4.61805 18.92 4.61654 18.92 4.61503 18.92C4.61352 18.92 4.61201 18.92 4.6105 18.92C4.60899 18.92 4.60748 18.92 4.60598 18.92C4.60447 18.92 4.60296 18.92 4.60145 18.92C4.59995 18.92 4.59844 18.92 4.59693 18.92C4.59543 18.92 4.59392 18.92 4.59241 18.92C4.59091 18.92 4.5894 18.92 4.5879 18.92C4.5864 18.92 4.58489 18.92 4.58339 18.92C4.58189 18.92 4.58038 18.92 4.57888 18.92C4.57738 18.92 4.57588 18.92 4.57438 18.92C4.57287 18.92 4.57137 18.92 4.56987 18.92C4.56837 18.92 4.56687 18.92 4.56538 18.92C4.56388 18.92 4.56238 18.92 4.56088 18.92C4.55938 18.92 4.55788 18.92 4.55639 18.92C4.55489 18.92 4.55339 18.92 4.5519 18.92C4.5504 18.92 4.54891 18.92 4.54741 18.92C4.54592 18.92 4.54442 18.92 4.54293 18.92C4.54144 18.92 4.53994 18.92 4.53845 18.92C4.53696 18.92 4.53547 18.92 4.53397 18.92C4.53248 18.92 4.53099 18.92 4.5295 18.92C4.52801 18.92 4.52652 18.92 4.52503 18.92C4.52354 18.92 4.52205 18.92 4.52057 18.92C4.51908 18.92 4.51759 18.92 4.5161 18.92C4.51462 18.92 4.51313 18.92 4.51164 18.92C4.51016 18.92 4.50867 18.92 4.50719 18.92C4.5057 18.92 4.50422 18.92 4.50273 18.92C4.50125 18.92 4.49977 18.92 4.49829 18.92C4.4968 18.92 4.49532 18.92 4.49384 18.92C4.49236 18.92 4.49088 18.92 4.4894 18.92C4.48792 18.92 4.48644 18.92 4.48496 18.92C4.48348 18.92 4.482 18.92 4.48052 18.92C4.47905 18.92 4.47757 18.92 4.47609 18.92C4.47461 18.92 4.47314 18.92 4.47166 18.92C4.47019 18.92 4.46871 18.92 4.46724 18.92C4.46576 18.92 4.46429 18.92 4.46282 18.92C4.46135 18.92 4.45987 18.92 4.4584 18.92C4.45693 18.92 4.45546 18.92 4.45399 18.92C4.45252 18.92 4.45105 18.92 4.44958 18.92C4.44811 18.92 4.44664 18.92 4.44517 18.92C4.4437 18.92 4.44224 18.92 4.44077 18.92C4.4393 18.92 4.43784 18.92 4.43637 18.92C4.4349 18.92 4.43344 18.92 4.43197 18.92C4.43051 18.92 4.42905 18.92 4.42758 18.92C4.42612 18.92 4.42466 18.92 4.4232 18.92C4.42173 18.92 4.42027 18.92 4.41881 18.92C4.41735 18.92 4.41589 18.92 4.41443 18.92C4.41297 18.92 4.41151 18.92 4.41006 18.92C4.4086 18.92 4.40714 18.92 4.40568 18.92C4.40423 18.92 4.40277 18.92 4.40131 18.92C4.39986 18.92 4.3984 18.92 4.39695 18.92C4.3955 18.92 4.39404 18.92 4.39259 18.92C4.39114 18.92 4.38968 18.92 4.38823 18.92C4.38678 18.92 4.38533 18.92 4.38388 18.92C4.38243 18.92 4.38098 18.92 4.37953 18.92C4.37808 18.92 4.37663 18.92 4.37519 18.92C4.37374 18.92 4.37229 18.92 4.37085 18.92C4.3694 18.92 4.36795 18.92 4.36651 18.92C4.36507 18.92 4.36362 18.92 4.36218 18.92C4.36073 18.92 4.35929 18.92 4.35785 18.92C4.35641 18.92 4.35497 18.92 4.35352 18.92C4.35208 18.92 4.35064 18.92 4.3492 18.92C4.34776 18.92 4.34633 18.92 4.34489 18.92C4.34345 18.92 4.34201 18.92 4.34058 18.92C4.33914 18.92 4.3377 18.92 4.33627 18.92C4.33483 18.92 4.3334 18.92 4.33196 18.92C4.33053 18.92 4.3291 18.92 4.32767 18.92C4.32623 18.92 4.3248 18.92 4.32337 18.92C4.32194 18.92 4.32051 18.92 4.31908 18.92C4.31765 18.92 4.31622 18.92 4.31479 18.92C4.31336 18.92 4.31194 18.92 4.31051 18.92C4.30908 18.92 4.30766 18.92 4.30623 18.92C4.30481 18.92 4.30338 18.92 4.30196 18.92C4.30054 18.92 4.29911 18.92 4.29769 18.92C4.29627 18.92 4.29485 18.92 4.29342 18.92C4.292 18.92 4.29058 18.92 4.28916 18.92C4.28774 18.92 4.28633 18.92 4.28491 18.92C4.28349 18.92 4.28207 18.92 4.28066 18.92C4.27924 18.92 4.27782 18.92 4.27641 18.92C4.27499 18.92 4.27358 18.92 4.27217 18.92C4.27075 18.92 4.26934 18.92 4.26793 18.92C4.26652 18.92 4.26511 18.92 4.26369 18.92C4.26228 18.92 4.26087 18.92 4.25947 18.92C4.25806 18.92 4.25665 18.92 4.25524 18.92C4.25383 18.92 4.25243 18.92 4.25102 18.92C4.24962 18.92 4.24821 18.92 4.24681 18.92C4.2454 18.92 4.244 18.92 4.24259 18.92C4.24119 18.92 4.23979 18.92 4.23839 18.92C4.23699 18.92 4.23559 18.92 4.23419 18.92C4.23279 18.92 4.23139 18.92 4.22999 18.92C4.22859 18.92 4.22719 18.92 4.2258 18.92C4.2244 18.92 4.22301 18.92 4.22161 18.92C4.22022 18.92 4.21882 18.92 4.21743 18.92C4.21603 18.92 4.21464 18.92 4.21325 18.92C4.21186 18.92 4.21047 18.92 4.20908 18.92C4.20769 18.92 4.2063 18.92 4.20491 18.92C4.20352 18.92 4.20213 18.92 4.20074 18.92C4.19936 18.92 4.19797 18.92 4.19659 18.92C4.1952 18.92 4.19382 18.92 4.19243 18.92C4.19105 18.92 4.18967 18.92 4.18828 18.92C4.1869 18.92 4.18552 18.92 4.18414 18.92C4.18276 18.92 4.18138 18.92 4.18 18.92V20.12C4.18138 20.12 4.18276 20.12 4.18414 20.12C4.18552 20.12 4.1869 20.12 4.18828 20.12C4.18967 20.12 4.19105 20.12 4.19243 20.12C4.19382 20.12 4.1952 20.12 4.19659 20.12C4.19797 20.12 4.19936 20.12 4.20074 20.12C4.20213 20.12 4.20352 20.12 4.20491 20.12C4.2063 20.12 4.20769 20.12 4.20908 20.12C4.21047 20.12 4.21186 20.12 4.21325 20.12C4.21464 20.12 4.21603 20.12 4.21743 20.12C4.21882 20.12 4.22022 20.12 4.22161 20.12C4.22301 20.12 4.2244 20.12 4.2258 20.12C4.22719 20.12 4.22859 20.12 4.22999 20.12C4.23139 20.12 4.23279 20.12 4.23419 20.12C4.23559 20.12 4.23699 20.12 4.23839 20.12C4.23979 20.12 4.24119 20.12 4.24259 20.12C4.244 20.12 4.2454 20.12 4.24681 20.12C4.24821 20.12 4.24962 20.12 4.25102 20.12C4.25243 20.12 4.25383 20.12 4.25524 20.12C4.25665 20.12 4.25806 20.12 4.25947 20.12C4.26087 20.12 4.26228 20.12 4.26369 20.12C4.26511 20.12 4.26652 20.12 4.26793 20.12C4.26934 20.12 4.27075 20.12 4.27217 20.12C4.27358 20.12 4.27499 20.12 4.27641 20.12C4.27782 20.12 4.27924 20.12 4.28066 20.12C4.28207 20.12 4.28349 20.12 4.28491 20.12C4.28633 20.12 4.28774 20.12 4.28916 20.12C4.29058 20.12 4.292 20.12 4.29342 20.12C4.29485 20.12 4.29627 20.12 4.29769 20.12C4.29911 20.12 4.30054 20.12 4.30196 20.12C4.30338 20.12 4.30481 20.12 4.30623 20.12C4.30766 20.12 4.30908 20.12 4.31051 20.12C4.31194 20.12 4.31336 20.12 4.31479 20.12C4.31622 20.12 4.31765 20.12 4.31908 20.12C4.32051 20.12 4.32194 20.12 4.32337 20.12C4.3248 20.12 4.32623 20.12 4.32767 20.12C4.3291 20.12 4.33053 20.12 4.33196 20.12C4.3334 20.12 4.33483 20.12 4.33627 20.12C4.3377 20.12 4.33914 20.12 4.34058 20.12C4.34201 20.12 4.34345 20.12 4.34489 20.12C4.34633 20.12 4.34776 20.12 4.3492 20.12C4.35064 20.12 4.35208 20.12 4.35352 20.12C4.35497 20.12 4.35641 20.12 4.35785 20.12C4.35929 20.12 4.36073 20.12 4.36218 20.12C4.36362 20.12 4.36507 20.12 4.36651 20.12C4.36795 20.12 4.3694 20.12 4.37085 20.12C4.37229 20.12 4.37374 20.12 4.37519 20.12C4.37663 20.12 4.37808 20.12 4.37953 20.12C4.38098 20.12 4.38243 20.12 4.38388 20.12C4.38533 20.12 4.38678 20.12 4.38823 20.12C4.38968 20.12 4.39114 20.12 4.39259 20.12C4.39404 20.12 4.3955 20.12 4.39695 20.12C4.3984 20.12 4.39986 20.12 4.40131 20.12C4.40277 20.12 4.40423 20.12 4.40568 20.12C4.40714 20.12 4.4086 20.12 4.41006 20.12C4.41151 20.12 4.41297 20.12 4.41443 20.12C4.41589 20.12 4.41735 20.12 4.41881 20.12C4.42027 20.12 4.42173 20.12 4.4232 20.12C4.42466 20.12 4.42612 20.12 4.42758 20.12C4.42905 20.12 4.43051 20.12 4.43197 20.12C4.43344 20.12 4.4349 20.12 4.43637 20.12C4.43784 20.12 4.4393 20.12 4.44077 20.12C4.44224 20.12 4.4437 20.12 4.44517 20.12C4.44664 20.12 4.44811 20.12 4.44958 20.12C4.45105 20.12 4.45252 20.12 4.45399 20.12C4.45546 20.12 4.45693 20.12 4.4584 20.12C4.45987 20.12 4.46135 20.12 4.46282 20.12C4.46429 20.12 4.46576 20.12 4.46724 20.12C4.46871 20.12 4.47019 20.12 4.47166 20.12C4.47314 20.12 4.47461 20.12 4.47609 20.12C4.47757 20.12 4.47905 20.12 4.48052 20.12C4.482 20.12 4.48348 20.12 4.48496 20.12C4.48644 20.12 4.48792 20.12 4.4894 20.12C4.49088 20.12 4.49236 20.12 4.49384 20.12C4.49532 20.12 4.4968 20.12 4.49829 20.12C4.49977 20.12 4.50125 20.12 4.50273 20.12C4.50422 20.12 4.5057 20.12 4.50719 20.12C4.50867 20.12 4.51016 20.12 4.51164 20.12C4.51313 20.12 4.51462 20.12 4.5161 20.12C4.51759 20.12 4.51908 20.12 4.52057 20.12C4.52205 20.12 4.52354 20.12 4.52503 20.12C4.52652 20.12 4.52801 20.12 4.5295 20.12C4.53099 20.12 4.53248 20.12 4.53397 20.12C4.53547 20.12 4.53696 20.12 4.53845 20.12C4.53994 20.12 4.54144 20.12 4.54293 20.12C4.54442 20.12 4.54592 20.12 4.54741 20.12C4.54891 20.12 4.5504 20.12 4.5519 20.12C4.55339 20.12 4.55489 20.12 4.55639 20.12C4.55788 20.12 4.55938 20.12 4.56088 20.12C4.56238 20.12 4.56388 20.12 4.56538 20.12C4.56687 20.12 4.56837 20.12 4.56987 20.12C4.57137 20.12 4.57287 20.12 4.57438 20.12C4.57588 20.12 4.57738 20.12 4.57888 20.12C4.58038 20.12 4.58189 20.12 4.58339 20.12C4.58489 20.12 4.5864 20.12 4.5879 20.12C4.5894 20.12 4.59091 20.12 4.59241 20.12C4.59392 20.12 4.59543 20.12 4.59693 20.12C4.59844 20.12 4.59995 20.12 4.60145 20.12C4.60296 20.12 4.60447 20.12 4.60598 20.12C4.60748 20.12 4.60899 20.12 4.6105 20.12C4.61201 20.12 4.61352 20.12 4.61503 20.12C4.61654 20.12 4.61805 20.12 4.61956 20.12C4.62108 20.12 4.62259 20.12 4.6241 20.12C4.62561 20.12 4.62712 20.12 4.62864 20.12C4.63015 20.12 4.63166 20.12 4.63318 20.12C4.63469 20.12 4.63621 20.12 4.63772 20.12C4.63924 20.12 4.64075 20.12 4.64227 20.12C4.64378 20.12 4.6453 20.12 4.64682 20.12C4.64834 20.12 4.64985 20.12 4.65137 20.12C4.65289 20.12 4.65441 20.12 4.65593 20.12C4.65744 20.12 4.65896 20.12 4.66048 20.12C4.662 20.12 4.66352 20.12 4.66504 20.12C4.66657 20.12 4.66809 20.12 4.66961 20.12C4.67113 20.12 4.67265 20.12 4.67417 20.12C4.6757 20.12 4.67722 20.12 4.67874 20.12C4.68027 20.12 4.68179 20.12 4.68331 20.12C4.68484 20.12 4.68636 20.12 4.68789 20.12C4.68941 20.12 4.69094 20.12 4.69247 20.12C4.69399 20.12 4.69552 20.12 4.69704 20.12C4.69857 20.12 4.7001 20.12 4.70163 20.12C4.70315 20.12 4.70468 20.12 4.70621 20.12C4.70774 20.12 4.70927 20.12 4.7108 20.12C4.71233 20.12 4.71386 20.12 4.71539 20.12C4.71692 20.12 4.71845 20.12 4.71998 20.12C4.72151 20.12 4.72304 20.12 4.72457 20.12C4.72611 20.12 4.72764 20.12 4.72917 20.12C4.7307 20.12 4.73224 20.12 4.73377 20.12C4.7353 20.12 4.73684 20.12 4.73837 20.12C4.73991 20.12 4.74144 20.12 4.74298 20.12C4.74451 20.12 4.74605 20.12 4.74758 20.12C4.74912 20.12 4.75066 20.12 4.75219 20.12C4.75373 20.12 4.75527 20.12 4.7568 20.12C4.75834 20.12 4.75988 20.12 4.76142 20.12C4.76296 20.12 4.7645 20.12 4.76603 20.12C4.76757 20.12 4.76911 20.12 4.77065 20.12C4.77219 20.12 4.77373 20.12 4.77527 20.12C4.77681 20.12 4.77836 20.12 4.7799 20.12C4.78144 20.12 4.78298 20.12 4.78452 20.12C4.78606 20.12 4.78761 20.12 4.78915 20.12C4.79069 20.12 4.79224 20.12 4.79378 20.12C4.79532 20.12 4.79687 20.12 4.79841 20.12C4.79995 20.12 4.8015 20.12 4.80304 20.12C4.80459 20.12 4.80613 20.12 4.80768 20.12C4.80923 20.12 4.81077 20.12 4.81232 20.12C4.81387 20.12 4.81541 20.12 4.81696 20.12C4.81851 20.12 4.82005 20.12 4.8216 20.12C4.82315 20.12 4.8247 20.12 4.82625 20.12C4.82779 20.12 4.82934 20.12 4.83089 20.12C4.83244 20.12 4.83399 20.12 4.83554 20.12C4.83709 20.12 4.83864 20.12 4.84019 20.12C4.84174 20.12 4.84329 20.12 4.84484 20.12C4.84639 20.12 4.84795 20.12 4.8495 20.12C4.85105 20.12 4.8526 20.12 4.85415 20.12C4.85571 20.12 4.85726 20.12 4.85881 20.12C4.86037 20.12 4.86192 20.12 4.86347 20.12C4.86503 20.12 4.86658 20.12 4.86813 20.12C4.86969 20.12 4.87124 20.12 4.8728 20.12C4.87435 20.12 4.87591 20.12 4.87746 20.12C4.87902 20.12 4.88058 20.12 4.88213 20.12C4.88369 20.12 4.88524 20.12 4.8868 20.12C4.88836 20.12 4.88991 20.12 4.89147 20.12C4.89303 20.12 4.89459 20.12 4.89614 20.12C4.8977 20.12 4.89926 20.12 4.90082 20.12C4.90238 20.12 4.90394 20.12 4.9055 20.12C4.90705 20.12 4.90861 20.12 4.91017 20.12C4.91173 20.12 4.91329 20.12 4.91485 20.12C4.91641 20.12 4.91797 20.12 4.91953 20.12C4.9211 20.12 4.92266 20.12 4.92422 20.12C4.92578 20.12 4.92734 20.12 4.9289 20.12C4.93046 20.12 4.93203 20.12 4.93359 20.12C4.93515 20.12 4.93671 20.12 4.93828 20.12C4.93984 20.12 4.9414 20.12 4.94297 20.12C4.94453 20.12 4.94609 20.12 4.94766 20.12C4.94922 20.12 4.95078 20.12 4.95235 20.12C4.95391 20.12 4.95548 20.12 4.95704 20.12C4.95861 20.12 4.96017 20.12 4.96174 20.12C4.9633 20.12 4.96487 20.12 4.96643 20.12C4.968 20.12 4.96957 20.12 4.97113 20.12C4.9727 20.12 4.97427 20.12 4.97583 20.12C4.9774 20.12 4.97897 20.12 4.98053 20.12C4.9821 20.12 4.98367 20.12 4.98524 20.12C4.9868 20.12 4.98837 20.12 4.98994 20.12C4.99151 20.12 4.99308 20.12 4.99465 20.12C4.99621 20.12 4.99778 20.12 4.99935 20.12C5.00092 20.12 5.00249 20.12 5.00406 20.12C5.00563 20.12 5.0072 20.12 5.00877 20.12C5.01034 20.12 5.01191 20.12 5.01348 20.12C5.01505 20.12 5.01662 20.12 5.01819 20.12C5.01976 20.12 5.02133 20.12 5.0229 20.12C5.02447 20.12 5.02605 20.12 5.02762 20.12C5.02919 20.12 5.03076 20.12 5.03233 20.12C5.0339 20.12 5.03548 20.12 5.03705 20.12C5.03862 20.12 5.04019 20.12 5.04177 20.12C5.04334 20.12 5.04491 20.12 5.04648 20.12C5.04806 20.12 5.04963 20.12 5.0512 20.12C5.05278 20.12 5.05435 20.12 5.05593 20.12C5.0575 20.12 5.05907 20.12 5.06065 20.12C5.06222 20.12 5.0638 20.12 5.06537 20.12C5.06694 20.12 5.06852 20.12 5.07009 20.12C5.07167 20.12 5.07324 20.12 5.07482 20.12C5.07639 20.12 5.07797 20.12 5.07954 20.12C5.08112 20.12 5.0827 20.12 5.08427 20.12C5.08585 20.12 5.08742 20.12 5.089 20.12C5.09058 20.12 5.09215 20.12 5.09373 20.12C5.0953 20.12 5.09688 20.12 5.09846 20.12C5.10003 20.12 5.10161 20.12 5.10319 20.12C5.10476 20.12 5.10634 20.12 5.10792 20.12C5.1095 20.12 5.11107 20.12 5.11265 20.12C5.11423 20.12 5.11581 20.12 5.11738 20.12C5.11896 20.12 5.12054 20.12 5.12212 20.12C5.1237 20.12 5.12527 20.12 5.12685 20.12C5.12843 20.12 5.13001 20.12 5.13159 20.12C5.13317 20.12 5.13475 20.12 5.13632 20.12C5.1379 20.12 5.13948 20.12 5.14106 20.12C5.14264 20.12 5.14422 20.12 5.1458 20.12C5.14738 20.12 5.14896 20.12 5.15054 20.12C5.15212 20.12 5.1537 20.12 5.15528 20.12C5.15686 20.12 5.15844 20.12 5.16002 20.12C5.1616 20.12 5.16318 20.12 5.16476 20.12C5.16634 20.12 5.16792 20.12 5.1695 20.12C5.17108 20.12 5.17266 20.12 5.17424 20.12C5.17582 20.12 5.1774 20.12 5.17898 20.12C5.18056 20.12 5.18214 20.12 5.18372 20.12C5.1853 20.12 5.18688 20.12 5.18847 20.12C5.19005 20.12 5.19163 20.12 5.19321 20.12C5.19479 20.12 5.19637 20.12 5.19795 20.12C5.19953 20.12 5.20112 20.12 5.2027 20.12C5.20428 20.12 5.20586 20.12 5.20744 20.12C5.20902 20.12 5.21061 20.12 5.21219 20.12C5.21377 20.12 5.21535 20.12 5.21693 20.12C5.21852 20.12 5.2201 20.12 5.22168 20.12C5.22326 20.12 5.22484 20.12 5.22643 20.12C5.22801 20.12 5.22959 20.12 5.23117 20.12C5.23276 20.12 5.23434 20.12 5.23592 20.12C5.2375 20.12 5.23908 20.12 5.24067 20.12C5.24225 20.12 5.24383 20.12 5.24542 20.12C5.247 20.12 5.24858 20.12 5.25016 20.12C5.25175 20.12 5.25333 20.12 5.25491 20.12C5.25649 20.12 5.25808 20.12 5.25966 20.12C5.26124 20.12 5.26283 20.12 5.26441 20.12C5.26599 20.12 5.26757 20.12 5.26916 20.12C5.27074 20.12 5.27232 20.12 5.27391 20.12C5.27549 20.12 5.27707 20.12 5.27866 20.12C5.28024 20.12 5.28182 20.12 5.28341 20.12C5.28499 20.12 5.28657 20.12 5.28815 20.12C5.28974 20.12 5.29132 20.12 5.2929 20.12C5.29449 20.12 5.29607 20.12 5.29765 20.12C5.29924 20.12 5.30082 20.12 5.3024 20.12C5.30399 20.12 5.30557 20.12 5.30715 20.12C5.30874 20.12 5.31032 20.12 5.3119 20.12C5.31349 20.12 5.31507 20.12 5.31665 20.12C5.31824 20.12 5.31982 20.12 5.3214 20.12C5.32299 20.12 5.32457 20.12 5.32615 20.12C5.32774 20.12 5.32932 20.12 5.3309 20.12C5.33249 20.12 5.33407 20.12 5.33565 20.12C5.33723 20.12 5.33882 20.12 5.3404 20.12C5.34198 20.12 5.34357 20.12 5.34515 20.12C5.34673 20.12 5.34832 20.12 5.3499 20.12C5.35148 20.12 5.35307 20.12 5.35465 20.12C5.35623 20.12 5.35781 20.12 5.3594 20.12C5.36098 20.12 5.36256 20.12 5.36415 20.12C5.36573 20.12 5.36731 20.12 5.36889 20.12C5.37048 20.12 5.37206 20.12 5.37364 20.12C5.37522 20.12 5.37681 20.12 5.37839 20.12C5.37997 20.12 5.38155 20.12 5.38314 20.12C5.38472 20.12 5.3863 20.12 5.38788 20.12C5.38947 20.12 5.39105 20.12 5.39263 20.12C5.39421 20.12 5.3958 20.12 5.39738 20.12C5.39896 20.12 5.40054 20.12 5.40212 20.12C5.40371 20.12 5.40529 20.12 5.40687 20.12C5.40845 20.12 5.41003 20.12 5.41161 20.12C5.4132 20.12 5.41478 20.12 5.41636 20.12C5.41794 20.12 5.41952 20.12 5.4211 20.12C5.42269 20.12 5.42427 20.12 5.42585 20.12C5.42743 20.12 5.42901 20.12 5.43059 20.12C5.43217 20.12 5.43375 20.12 5.43533 20.12C5.43692 20.12 5.4385 20.12 5.44008 20.12C5.44166 20.12 5.44324 20.12 5.44482 20.12C5.4464 20.12 5.44798 20.12 5.44956 20.12C5.45114 20.12 5.45272 20.12 5.4543 20.12C5.45588 20.12 5.45746 20.12 5.45904 20.12C5.46062 20.12 5.4622 20.12 5.46378 20.12C5.46536 20.12 5.46694 20.12 5.46852 20.12C5.4701 20.12 5.47168 20.12 5.47326 20.12C5.47484 20.12 5.47642 20.12 5.478 20.12C5.47957 20.12 5.48115 20.12 5.48273 20.12C5.48431 20.12 5.48589 20.12 5.48747 20.12C5.48905 20.12 5.49063 20.12 5.4922 20.12C5.49378 20.12 5.49536 20.12 5.49694 20.12C5.49852 20.12 5.50009 20.12 5.50167 20.12C5.50325 20.12 5.50483 20.12 5.50641 20.12C5.50798 20.12 5.50956 20.12 5.51114 20.12C5.51272 20.12 5.51429 20.12 5.51587 20.12C5.51745 20.12 5.51902 20.12 5.5206 20.12C5.52218 20.12 5.52375 20.12 5.52533 20.12C5.52691 20.12 5.52848 20.12 5.53006 20.12C5.53163 20.12 5.53321 20.12 5.53479 20.12C5.53636 20.12 5.53794 20.12 5.53951 20.12C5.54109 20.12 5.54266 20.12 5.54424 20.12C5.54581 20.12 5.54739 20.12 5.54896 20.12C5.55054 20.12 5.55211 20.12 5.55369 20.12C5.55526 20.12 5.55684 20.12 5.55841 20.12C5.55998 20.12 5.56156 20.12 5.56313 20.12C5.56471 20.12 5.56628 20.12 5.56785 20.12C5.56943 20.12 5.571 20.12 5.57257 20.12C5.57415 20.12 5.57572 20.12 5.57729 20.12C5.57886 20.12 5.58044 20.12 5.58201 20.12C5.58358 20.12 5.58515 20.12 5.58673 20.12C5.5883 20.12 5.58987 20.12 5.59144 20.12C5.59301 20.12 5.59458 20.12 5.59615 20.12C5.59773 20.12 5.5993 20.12 5.60087 20.12C5.60244 20.12 5.60401 20.12 5.60558 20.12C5.60715 20.12 5.60872 20.12 5.61029 20.12C5.61186 20.12 5.61343 20.12 5.615 20.12C5.61657 20.12 5.61814 20.12 5.61971 20.12C5.62128 20.12 5.62284 20.12 5.62441 20.12C5.62598 20.12 5.62755 20.12 5.62912 20.12C5.63069 20.12 5.63225 20.12 5.63382 20.12C5.63539 20.12 5.63696 20.12 5.63852 20.12C5.64009 20.12 5.64166 20.12 5.64323 20.12C5.64479 20.12 5.64636 20.12 5.64792 20.12C5.64949 20.12 5.65106 20.12 5.65262 20.12C5.65419 20.12 5.65575 20.12 5.65732 20.12C5.65889 20.12 5.66045 20.12 5.66202 20.12C5.66358 20.12 5.66514 20.12 5.66671 20.12C5.66827 20.12 5.66984 20.12 5.6714 20.12C5.67297 20.12 5.67453 20.12 5.67609 20.12C5.67766 20.12 5.67922 20.12 5.68078 20.12C5.68234 20.12 5.68391 20.12 5.68547 20.12C5.68703 20.12 5.68859 20.12 5.69016 20.12C5.69172 20.12 5.69328 20.12 5.69484 20.12C5.6964 20.12 5.69796 20.12 5.69952 20.12C5.70108 20.12 5.70264 20.12 5.7042 20.12C5.70577 20.12 5.70732 20.12 5.70888 20.12C5.71044 20.12 5.712 20.12 5.71356 20.12C5.71512 20.12 5.71668 20.12 5.71824 20.12C5.7198 20.12 5.72136 20.12 5.72291 20.12C5.72447 20.12 5.72603 20.12 5.72759 20.12C5.72914 20.12 5.7307 20.12 5.73226 20.12C5.73381 20.12 5.73537 20.12 5.73693 20.12C5.73848 20.12 5.74004 20.12 5.74159 20.12C5.74315 20.12 5.74471 20.12 5.74626 20.12C5.74782 20.12 5.74937 20.12 5.75092 20.12C5.75248 20.12 5.75403 20.12 5.75559 20.12C5.75714 20.12 5.75869 20.12 5.76025 20.12C5.7618 20.12 5.76335 20.12 5.7649 20.12C5.76646 20.12 5.76801 20.12 5.76956 20.12C5.77111 20.12 5.77266 20.12 5.77422 20.12C5.77577 20.12 5.77732 20.12 5.77887 20.12C5.78042 20.12 5.78197 20.12 5.78352 20.12C5.78507 20.12 5.78662 20.12 5.78817 20.12C5.78972 20.12 5.79126 20.12 5.79281 20.12C5.79436 20.12 5.79591 20.12 5.79746 20.12C5.79901 20.12 5.80055 20.12 5.8021 20.12C5.80365 20.12 5.80519 20.12 5.80674 20.12C5.80829 20.12 5.80983 20.12 5.81138 20.12C5.81292 20.12 5.81447 20.12 5.81601 20.12C5.81756 20.12 5.8191 20.12 5.82065 20.12C5.82219 20.12 5.82374 20.12 5.82528 20.12C5.82682 20.12 5.82837 20.12 5.82991 20.12C5.83145 20.12 5.833 20.12 5.83454 20.12C5.83608 20.12 5.83762 20.12 5.83916 20.12C5.8407 20.12 5.84224 20.12 5.84379 20.12C5.84533 20.12 5.84687 20.12 5.84841 20.12C5.84995 20.12 5.85149 20.12 5.85302 20.12C5.85456 20.12 5.8561 20.12 5.85764 20.12C5.85918 20.12 5.86072 20.12 5.86225 20.12C5.86379 20.12 5.86533 20.12 5.86687 20.12C5.8684 20.12 5.86994 20.12 5.87148 20.12C5.87301 20.12 5.87455 20.12 5.87608 20.12C5.87762 20.12 5.87915 20.12 5.88069 20.12C5.88222 20.12 5.88376 20.12 5.88529 20.12C5.88682 20.12 5.88836 20.12 5.88989 20.12C5.89142 20.12 5.89295 20.12 5.89449 20.12C5.89602 20.12 5.89755 20.12 5.89908 20.12C5.90061 20.12 5.90214 20.12 5.90367 20.12C5.9052 20.12 5.90673 20.12 5.90826 20.12C5.90979 20.12 5.91132 20.12 5.91285 20.12C5.91438 20.12 5.91591 20.12 5.91743 20.12C5.91896 20.12 5.92049 20.12 5.92202 20.12C5.92354 20.12 5.92507 20.12 5.9266 20.12C5.92812 20.12 5.92965 20.12 5.93117 20.12C5.9327 20.12 5.93422 20.12 5.93575 20.12C5.93727 20.12 5.93879 20.12 5.94032 20.12C5.94184 20.12 5.94336 20.12 5.94489 20.12C5.94641 20.12 5.94793 20.12 5.94945 20.12C5.95097 20.12 5.9525 20.12 5.95402 20.12C5.95554 20.12 5.95706 20.12 5.95858 20.12C5.9601 20.12 5.96162 20.12 5.96313 20.12C5.96465 20.12 5.96617 20.12 5.96769 20.12C5.96921 20.12 5.97073 20.12 5.97224 20.12C5.97376 20.12 5.97528 20.12 5.97679 20.12C5.97831 20.12 5.97982 20.12 5.98134 20.12C5.98285 20.12 5.98437 20.12 5.98588 20.12C5.9874 20.12 5.98891 20.12 5.99042 20.12C5.99194 20.12 5.99345 20.12 5.99496 20.12C5.99647 20.12 5.99799 20.12 5.9995 20.12C6.00101 20.12 6.00252 20.12 6.00403 20.12C6.00554 20.12 6.00705 20.12 6.00856 20.12C6.01007 20.12 6.01158 20.12 6.01309 20.12C6.01459 20.12 6.0161 20.12 6.01761 20.12C6.01912 20.12 6.02062 20.12 6.02213 20.12C6.02364 20.12 6.02514 20.12 6.02665 20.12C6.02815 20.12 6.02966 20.12 6.03116 20.12C6.03267 20.12 6.03417 20.12 6.03567 20.12C6.03718 20.12 6.03868 20.12 6.04018 20.12C6.04168 20.12 6.04318 20.12 6.04469 20.12C6.04619 20.12 6.04769 20.12 6.04919 20.12C6.05069 20.12 6.05219 20.12 6.05369 20.12C6.05519 20.12 6.05668 20.12 6.05818 20.12C6.05968 20.12 6.06118 20.12 6.06267 20.12C6.06417 20.12 6.06567 20.12 6.06716 20.12C6.06866 20.12 6.07015 20.12 6.07165 20.12C6.07314 20.12 6.07464 20.12 6.07613 20.12C6.07763 20.12 6.07912 20.12 6.08061 20.12C6.0821 20.12 6.0836 20.12 6.08509 20.12C6.08658 20.12 6.08807 20.12 6.08956 20.12C6.09105 20.12 6.09254 20.12 6.09403 20.12C6.09552 20.12 6.09701 20.12 6.0985 20.12C6.09999 20.12 6.10147 20.12 6.10296 20.12C6.10445 20.12 6.10593 20.12 6.10742 20.12C6.10891 20.12 6.11039 20.12 6.11188 20.12C6.11336 20.12 6.11484 20.12 6.11633 20.12C6.11781 20.12 6.1193 20.12 6.12078 20.12C6.12226 20.12 6.12374 20.12 6.12522 20.12C6.1267 20.12 6.12819 20.12 6.12967 20.12C6.13115 20.12 6.13263 20.12 6.1341 20.12C6.13558 20.12 6.13706 20.12 6.13854 20.12C6.14002 20.12 6.14149 20.12 6.14297 20.12C6.14445 20.12 6.14592 20.12 6.1474 20.12C6.14887 20.12 6.15035 20.12 6.15182 20.12C6.1533 20.12 6.15477 20.12 6.15625 20.12C6.15772 20.12 6.15919 20.12 6.16066 20.12C6.16213 20.12 6.16361 20.12 6.16508 20.12C6.16655 20.12 6.16802 20.12 6.16949 20.12C6.17096 20.12 6.17242 20.12 6.17389 20.12C6.17536 20.12 6.17683 20.12 6.1783 20.12C6.17976 20.12 6.18123 20.12 6.18269 20.12C6.18416 20.12 6.18562 20.12 6.18709 20.12C6.18855 20.12 6.19002 20.12 6.19148 20.12C6.19294 20.12 6.19441 20.12 6.19587 20.12C6.19733 20.12 6.19879 20.12 6.20025 20.12C6.20171 20.12 6.20317 20.12 6.20463 20.12C6.20609 20.12 6.20755 20.12 6.20901 20.12C6.21047 20.12 6.21192 20.12 6.21338 20.12C6.21484 20.12 6.21629 20.12 6.21775 20.12C6.2192 20.12 6.22066 20.12 6.22211 20.12C6.22357 20.12 6.22502 20.12 6.22647 20.12C6.22793 20.12 6.22938 20.12 6.23083 20.12C6.23228 20.12 6.23373 20.12 6.23518 20.12C6.23663 20.12 6.23808 20.12 6.23953 20.12C6.24098 20.12 6.24243 20.12 6.24388 20.12C6.24533 20.12 6.24677 20.12 6.24822 20.12C6.24966 20.12 6.25111 20.12 6.25255 20.12C6.254 20.12 6.25544 20.12 6.25689 20.12C6.25833 20.12 6.25977 20.12 6.26122 20.12C6.26266 20.12 6.2641 20.12 6.26554 20.12C6.26698 20.12 6.26842 20.12 6.26986 20.12C6.2713 20.12 6.27274 20.12 6.27418 20.12C6.27561 20.12 6.27705 20.12 6.27849 20.12C6.27993 20.12 6.28136 20.12 6.2828 20.12C6.28423 20.12 6.28567 20.12 6.2871 20.12C6.28853 20.12 6.28997 20.12 6.2914 20.12C6.29283 20.12 6.29426 20.12 6.2957 20.12C6.29713 20.12 6.29856 20.12 6.29999 20.12C6.30142 20.12 6.30284 20.12 6.30427 20.12C6.3057 20.12 6.30713 20.12 6.30856 20.12C6.30998 20.12 6.31141 20.12 6.31283 20.12C6.31426 20.12 6.31568 20.12 6.31711 20.12C6.31853 20.12 6.31995 20.12 6.32138 20.12C6.3228 20.12 6.32422 20.12 6.32564 20.12C6.32706 20.12 6.32848 20.12 6.3299 20.12C6.33132 20.12 6.33274 20.12 6.33416 20.12C6.33558 20.12 6.33699 20.12 6.33841 20.12C6.33983 20.12 6.34124 20.12 6.34266 20.12C6.34407 20.12 6.34549 20.12 6.3469 20.12C6.34831 20.12 6.34973 20.12 6.35114 20.12C6.35255 20.12 6.35396 20.12 6.35537 20.12C6.35678 20.12 6.35819 20.12 6.3596 20.12C6.36101 20.12 6.36242 20.12 6.36383 20.12C6.36523 20.12 6.36664 20.12 6.36805 20.12C6.36945 20.12 6.37086 20.12 6.37226 20.12C6.37367 20.12 6.37507 20.12 6.37647 20.12C6.37788 20.12 6.37928 20.12 6.38068 20.12C6.38208 20.12 6.38348 20.12 6.38488 20.12C6.38628 20.12 6.38768 20.12 6.38908 20.12C6.39048 20.12 6.39187 20.12 6.39327 20.12C6.39467 20.12 6.39606 20.12 6.39746 20.12C6.39885 20.12 6.40025 20.12 6.40164 20.12C6.40303 20.12 6.40443 20.12 6.40582 20.12C6.40721 20.12 6.4086 20.12 6.40999 20.12C6.41138 20.12 6.41277 20.12 6.41416 20.12C6.41555 20.12 6.41694 20.12 6.41832 20.12C6.41971 20.12 6.4211 20.12 6.42248 20.12C6.42387 20.12 6.42525 20.12 6.42664 20.12C6.42802 20.12 6.4294 20.12 6.43079 20.12C6.43217 20.12 6.43355 20.12 6.43493 20.12C6.43631 20.12 6.43769 20.12 6.43907 20.12C6.44045 20.12 6.44183 20.12 6.4432 20.12C6.44458 20.12 6.44596 20.12 6.44733 20.12C6.44871 20.12 6.45008 20.12 6.45146 20.12C6.45283 20.12 6.4542 20.12 6.45558 20.12C6.45695 20.12 6.45832 20.12 6.45969 20.12C6.46106 20.12 6.46243 20.12 6.4638 20.12C6.46517 20.12 6.46654 20.12 6.4679 20.12C6.46927 20.12 6.47064 20.12 6.472 20.12C6.47337 20.12 6.47473 20.12 6.4761 20.12C6.47746 20.12 6.47882 20.12 6.48019 20.12C6.48155 20.12 6.48291 20.12 6.48427 20.12C6.48563 20.12 6.48699 20.12 6.48835 20.12C6.48971 20.12 6.49107 20.12 6.49242 20.12C6.49378 20.12 6.49514 20.12 6.49649 20.12C6.49785 20.12 6.4992 20.12 6.50056 20.12V18.92ZM5.82667 18.2798C6.1463 18.2869 6.46413 18.2301 6.76149 18.1127L6.32075 16.9965C6.17206 17.0553 6.01315 17.0837 5.85333 17.0801L5.82667 18.2798ZM6.76149 18.1127C7.05886 17.9952 7.32976 17.8196 7.55831 17.596L6.71915 16.7382C6.60488 16.85 6.46943 16.9378 6.32075 16.9965L6.76149 18.1127ZM7.55831 17.596C7.78685 17.3724 7.96841 17.1055 8.09235 16.8108L6.98617 16.3456C6.92421 16.4929 6.83342 16.6264 6.71915 16.7382L7.55831 17.596ZM8.09235 16.8108C8.21628 16.516 8.28008 16.1995 8.28 15.8798L7.08 15.8801C7.08004 16.04 7.04814 16.1982 6.98617 16.3456L8.09235 16.8108ZM8.28 15.88C8.28 14.54 7.2027 13.48 5.84 13.48V14.68C6.5573 14.68 7.08 15.2199 7.08 15.88H8.28ZM5.85333 13.4801C5.5337 13.473 5.21587 13.5298 4.91851 13.6473L5.35925 14.7634C5.50794 14.7047 5.66685 14.6763 5.82667 14.6798L5.85333 13.4801ZM4.91851 13.6473C4.62114 13.7647 4.35023 13.9404 4.12169 14.1639L4.96085 15.0217C5.07512 14.9099 5.21057 14.8221 5.35925 14.7634L4.91851 13.6473ZM4.12169 14.1639C3.89315 14.3875 3.71159 14.6545 3.58765 14.9492L4.69383 15.4144C4.75579 15.267 4.84658 15.1335 4.96085 15.0217L4.12169 14.1639ZM3.58765 14.9492C3.46372 15.2439 3.39992 15.5604 3.4 15.8801L4.6 15.8798C4.59996 15.72 4.63186 15.5617 4.69383 15.4144L3.58765 14.9492ZM3.4 15.88C3.4 17.2199 4.4773 18.28 5.84 18.28V17.08C5.1227 17.08 4.6 16.54 4.6 15.88H3.4ZM18.5 13.52C15.5679 13.52 13.1237 14.5225 11.4165 16.3731C9.71422 18.2184 8.8 20.8461 8.8 24H10C10 21.0738 10.8458 18.7616 12.2985 17.1868C13.7463 15.6174 15.8521 14.72 18.5 14.72V13.52ZM8.8 24C8.8 27.1729 9.71368 29.8106 11.4159 31.6612C13.1233 33.5174 15.5678 34.52 18.5 34.52V33.32C15.8522 33.32 13.7467 32.4226 12.2991 30.8488C10.8463 29.2694 10 26.9471 10 24H8.8ZM18.5 34.52C21.4322 34.52 23.8767 33.5174 25.5841 31.6612C27.2863 29.8106 28.2 27.1729 28.2 24H27C27 26.9471 26.1537 29.2694 24.7009 30.8488C23.2533 32.4226 21.1478 33.32 18.5 33.32V34.52ZM28.2 24C28.2 20.8461 27.2858 18.2184 25.5835 16.3731C23.8763 14.5225 21.4321 13.52 18.5 13.52V14.72C21.1479 14.72 23.2537 15.6174 24.7015 17.1868C26.1542 18.7616 27 21.0738 27 24H28.2ZM18.5 17.6C20.0342 17.6 21.2591 18.2071 22.1137 19.2769C22.9793 20.3606 23.5 21.966 23.5 24H24.7C24.7 21.7739 24.1307 19.8794 23.0513 18.528C21.9609 17.1628 20.3858 16.4 18.5 16.4V17.6ZM23.5 24C23.5 26.0551 22.9787 27.6595 22.1145 28.7371C21.2614 29.8006 20.0371 30.4 18.5 30.4V31.6C20.3829 31.6 21.9586 30.8493 23.0506 29.4879C24.1313 28.1404 24.7 26.2449 24.7 24H23.5ZM18.5 30.4C16.9632 30.4 15.7445 29.8009 14.8965 28.7382C14.0369 27.661 13.52 26.0563 13.52 24H12.32C12.32 26.2437 12.8831 28.139 13.9585 29.4867C15.0455 30.849 16.6168 31.6 18.5 31.6V30.4ZM13.52 24C13.52 21.9648 14.0364 20.3591 14.8972 19.2758C15.7467 18.2068 16.9661 17.6 18.5 17.6V16.4C16.6139 16.4 15.0433 17.1632 13.9578 18.5292C12.8836 19.8809 12.32 21.7752 12.32 24H13.52ZM28.5389 29.3758C29.2319 32.667 32.2909 34.52 36.44 34.52V33.32C32.6129 33.32 30.2452 31.6553 29.7132 29.1286L28.5389 29.3758ZM36.44 34.52C38.8509 34.52 40.8846 33.9282 42.3297 32.7975C43.7908 31.6543 44.6 29.9972 44.6 28H43.4C43.4 29.6428 42.7492 30.9456 41.5903 31.8524C40.4154 32.7717 38.6691 33.32 36.44 33.32V34.52ZM44.6 28C44.6 26.4422 44.1469 25.1592 43.1101 24.1542C42.098 23.1731 40.5884 22.5154 38.5949 22.0553L38.3251 23.2246C40.2316 23.6646 41.492 24.2569 42.2749 25.0158C43.0331 25.7508 43.4 26.6978 43.4 28H44.6ZM38.593 22.0549L36.393 21.5549L36.127 22.7251L38.327 23.2251L38.593 22.0549ZM36.3985 21.5562C35.2402 21.2813 34.5134 20.9799 34.0827 20.6459C33.6933 20.3438 33.54 20.0134 33.54 19.56H32.34C32.34 20.3866 32.6667 21.0661 33.3472 21.5941C33.9866 22.09 34.9198 22.4386 36.1215 22.7238L36.3985 21.5562ZM33.54 19.56C33.54 18.9876 33.8003 18.4949 34.297 18.1272C34.8051 17.7512 35.5757 17.5 36.56 17.5V16.3C35.3843 16.3 34.3449 16.5988 33.583 17.1627C32.8097 17.7351 32.34 18.5724 32.34 19.56H33.54ZM36.56 17.5C38.216 17.5 39.2683 18.1695 39.6537 19.1192L40.7656 18.6679C40.1352 17.1147 38.518 16.3 36.56 16.3V17.5ZM41.3341 20.38H42.6561V19.18H41.3341V20.38ZM44.1572 18.6451C43.5204 15.4625 40.5624 13.52 36.58 13.52V14.72C40.1961 14.72 42.492 16.4386 42.9806 18.8805L44.1572 18.6451ZM36.58 13.52C34.3942 13.52 32.4742 14.1241 31.087 15.225C29.6896 16.334 28.86 17.9293 28.86 19.82H30.06C30.06 18.3107 30.7104 17.0559 31.833 16.1649C32.9658 15.2659 34.6058 14.72 36.58 14.72V13.52ZM28.86 19.82C28.86 21.323 29.3209 22.5929 30.3058 23.5893C31.2744 24.5692 32.6977 25.2317 34.5277 25.6452L34.7923 24.4747C33.0823 24.0883 31.9056 23.5008 31.1592 22.7457C30.4291 22.0071 30.06 21.057 30.06 19.82H28.86ZM34.5234 25.6442L37.0034 26.2242L37.2766 25.0557L34.7966 24.4757L34.5234 25.6442ZM37.0002 26.2234C38.1874 26.508 38.9298 26.8231 39.3703 27.1791C39.7697 27.5019 39.94 27.8718 39.94 28.4H41.14C41.14 27.5282 40.8203 26.808 40.1247 26.2458C39.4702 25.7169 38.5126 25.3519 37.2798 25.0565L37.0002 26.2234ZM39.94 28.4C39.94 28.9764 39.6597 29.4892 39.105 29.8791C38.5394 30.2766 37.6886 30.54 36.62 30.54V31.74C37.8714 31.74 38.9806 31.4333 39.795 30.8608C40.6203 30.2808 41.14 29.4236 41.14 28.4H39.94ZM36.62 30.54C34.8298 30.54 33.5575 29.8144 33.1025 28.8269L32.0127 29.329C32.7372 30.9015 34.5672 31.74 36.62 31.74V30.54ZM31.4261 27.62H30.0406V28.82H31.4261V27.62ZM33.1025 28.8269C32.8405 28.2581 32.2673 27.62 31.4261 27.62V28.82C31.603 28.82 31.8486 28.9731 32.0127 29.329L33.1025 28.8269ZM42.6561 20.38C43.5181 20.38 44.3563 19.64 44.1572 18.6451L42.9806 18.8805C42.9947 18.9514 42.9764 19.0138 42.9242 19.0701C42.8672 19.1317 42.7715 19.18 42.6561 19.18V20.38ZM39.6537 19.1192C39.8984 19.7222 40.4776 20.38 41.3341 20.38V19.18C41.1555 19.18 40.9101 19.0241 40.7656 18.6679L39.6537 19.1192ZM29.7132 29.1286C29.6978 29.0553 29.7165 28.9904 29.7695 28.9324C29.8272 28.8692 29.9239 28.82 30.0406 28.82V27.62C29.1676 27.62 28.3285 28.3763 28.5389 29.3758L29.7132 29.1286ZM8.1 20.52C8.1 19.6368 7.38464 18.92 6.50056 18.92V20.12C6.72103 20.12 6.9 20.2986 6.9 20.52H8.1ZM6.5 34.2C7.38366 34.2 8.1 33.4836 8.1 32.6H6.9C6.9 32.8209 6.72091 33 6.5 33V34.2Z" fill="white" mask="url(#path-1-inside-1_239_5265)"/>
</svg>
